<svg width="192" height="28" viewBox="0 0 192 28" fill="none" xmlns="http://www.w3.org/2000/svg">
<g clip-path="url(#clip0_2654_346)">
<path d="M21.2718 27.9998C14.3036 27.9998 10.9392 22.4999 0.951976 6.17149C-0.753907 3.3834 0.251628 1.72317 0.762298 1.13958C1.78486 -0.0275787 3.58315 -0.327706 5.34374 0.374973C8.96951 1.82202 15.3152 5.78323 19.5149 8.40458C20.1739 8.81666 20.7684 9.18705 21.2694 9.49671C21.7691 9.18824 22.36 8.82023 23.0154 8.41053C27.2199 5.78799 33.5717 1.82321 37.1999 0.374973C38.9605 -0.327706 40.7588 -0.0275787 41.7813 1.13958C42.292 1.72317 43.2975 3.3834 41.5916 6.17149C31.6044 22.4999 28.24 27.9998 21.2718 27.9998ZM3.47372 1.90777C2.95697 1.90777 2.51195 2.06855 2.2396 2.3794C1.74595 2.94273 1.88821 3.99437 2.62017 5.19131C12.7545 21.7603 15.6386 26.0931 21.2718 26.0931C26.905 26.0931 29.7891 21.7591 39.9234 5.19131C40.6554 3.99437 40.7977 2.94273 40.304 2.3794C39.8444 1.85417 38.8912 1.7577 37.933 2.14001C34.4678 3.52274 27.9531 7.58876 24.061 10.0184C23.706 10.2399 23.3692 10.4495 23.0555 10.6448C24.7687 11.8668 26.2229 13.4281 26.2229 15.6541C26.2229 18.0682 23.9553 20.1084 21.2706 20.1084C18.5859 20.1084 16.3183 18.0682 16.3183 15.6541C16.3183 13.427 17.7713 11.8656 19.4832 10.6448C19.1671 10.4483 18.8279 10.2363 18.4692 10.0124C14.5808 7.58518 8.0734 3.52155 4.61057 2.14001C4.22027 1.98399 3.82997 1.90777 3.47493 1.90777H3.47372ZM21.2706 11.7536C19.1708 13.1161 18.2649 14.3011 18.2649 15.6541C18.2649 17.007 19.6705 18.2028 21.2718 18.2028C22.8731 18.2028 24.2787 17.0118 24.2787 15.6541C24.2787 14.2964 23.3716 13.1173 21.2706 11.7536Z" fill="#E4002B"/>
<path d="M67.462 10.3104H64.9585V22.5703H67.462V10.3104Z" fill="black"/>
<path d="M53.8745 20.0764L47.1252 10.3104H44.3092L51.8927 21.5258C52.3328 22.1773 53.0769 22.568 53.8745 22.568C54.6722 22.568 55.4163 22.1761 55.8564 21.5258L63.4399 10.3104H60.6239L53.8745 20.0764Z" fill="black"/>
<path d="M161.331 10.3104H158.827V22.5703H161.331V10.3104Z" fill="black"/>
<path d="M80.6033 19.1987L73.4065 10.3104H70.5905V22.5703H73.094V13.376L80.2908 22.5703H83.1068V10.3104H80.6033V19.1987Z" fill="black"/>
<path d="M97.6548 14.2478C97.6548 12.865 96.4499 10.3104 92.8752 10.3104H88.2488H86.2353V22.5703H88.7388V12.4565H92.3025C94.1081 12.4565 94.9969 13.451 94.9969 14.6848C94.9969 16.1104 93.798 17.0537 92.3353 17.0537H91.6569C91.2885 17.0537 91.1559 17.4134 91.3432 17.6671L94.9957 22.5703H98.1242L94.9957 18.4817C96.1252 17.8469 97.6548 16.5868 97.6548 14.2478Z" fill="black"/>
<path d="M111.509 11.7801C110.891 11.2167 110.15 10.7796 109.284 10.47C108.418 10.1603 107.462 10.0055 106.418 10.0055C105.373 10.0055 104.411 10.1603 103.547 10.47C102.684 10.7796 101.943 11.2167 101.327 11.7801C100.71 12.3434 100.231 13.0187 99.8896 13.8035C99.548 14.5896 99.3777 15.4542 99.3777 16.4011C99.3777 17.3479 99.548 18.2245 99.8896 19.0177C100.231 19.8109 100.71 20.4945 101.327 21.0661C101.943 21.6378 102.684 22.0832 103.547 22.4012C104.41 22.7192 105.367 22.8776 106.418 22.8776C107.468 22.8776 108.418 22.718 109.284 22.4012C110.15 22.0832 110.891 21.639 111.509 21.0661C112.125 20.4945 112.604 19.812 112.946 19.0177C113.287 18.2245 113.458 17.3515 113.458 16.4011C113.458 15.4507 113.287 14.5896 112.946 13.8035C112.604 13.0175 112.125 12.3434 111.509 11.7801ZM110.615 18.1482C110.384 18.6663 110.067 19.1094 109.662 19.475C109.258 19.8406 108.779 20.1229 108.225 20.3206C107.67 20.5183 107.068 20.6171 106.418 20.6171C105.767 20.6171 105.164 20.5183 104.611 20.3206C104.056 20.1229 103.576 19.8406 103.17 19.475C102.763 19.1094 102.445 18.6663 102.217 18.1482C101.988 17.6302 101.874 17.0478 101.874 16.4011C101.874 15.7544 101.988 15.1744 102.217 14.6622C102.445 14.1489 102.763 13.7154 103.17 13.3593C103.577 13.0044 104.058 12.7328 104.611 12.5459C105.164 12.3589 105.767 12.2648 106.418 12.2648C107.068 12.2648 107.671 12.3589 108.225 12.5459C108.778 12.7328 109.257 13.0044 109.662 13.3593C110.067 13.7142 110.384 14.1489 110.615 14.6622C110.846 15.1755 110.961 15.7556 110.961 16.4011C110.961 17.0466 110.846 17.6302 110.615 18.1482Z" fill="black"/>
<path d="M142.172 11.7801C141.554 11.2167 140.814 10.7796 139.947 10.47C139.081 10.1603 138.125 10.0055 137.08 10.0055C136.034 10.0055 135.074 10.1603 134.209 10.47C133.346 10.7796 132.605 11.2167 131.989 11.7801C131.371 12.3434 130.893 13.0187 130.552 13.8035C130.21 14.5896 130.04 15.4542 130.04 16.4011C130.04 17.3479 130.21 18.2245 130.552 19.0177C130.893 19.8109 131.372 20.4945 131.989 21.0661C132.605 21.6378 133.346 22.0832 134.209 22.4012C135.072 22.7192 136.029 22.8776 137.08 22.8776C138.13 22.8776 139.08 22.718 139.947 22.4012C140.814 22.0832 141.554 21.639 142.172 21.0661C142.788 20.4945 143.267 19.812 143.609 19.0177C143.951 18.2245 144.121 17.3515 144.121 16.4011C144.121 15.4507 143.951 14.5896 143.609 13.8035C143.267 13.0175 142.788 12.3434 142.172 11.7801ZM141.278 18.1482C141.047 18.6663 140.73 19.1094 140.325 19.475C139.921 19.8406 139.442 20.1229 138.888 20.3206C138.333 20.5183 137.732 20.6171 137.08 20.6171C136.428 20.6171 135.826 20.5183 135.273 20.3206C134.719 20.1229 134.238 19.8406 133.832 19.475C133.425 19.1094 133.108 18.6663 132.879 18.1482C132.65 17.6302 132.536 17.0478 132.536 16.4011C132.536 15.7544 132.65 15.1744 132.879 14.6622C133.108 14.1489 133.425 13.7154 133.832 13.3593C134.24 13.0044 134.72 12.7328 135.273 12.5459C135.826 12.3589 136.429 12.2648 137.08 12.2648C137.73 12.2648 138.333 12.3589 138.888 12.5459C139.441 12.7328 139.92 13.0044 140.325 13.3593C140.73 13.7142 141.047 14.1489 141.278 14.6622C141.509 15.1755 141.625 15.7556 141.625 16.4011C141.625 17.0466 141.509 17.6302 141.278 18.1482Z" fill="black"/>
<path d="M125.974 15.7067C126.465 15.1219 126.913 14.4967 126.913 13.2711C126.913 11.9754 125.974 10.3104 123.335 10.3104H117.838H115.649V22.5703H118.152C119.178 22.5703 122.469 22.5703 123.965 22.5703C126.641 22.5703 127.851 20.6171 127.851 18.8295C127.851 17.0418 126.539 16.0414 125.974 15.7067ZM124.438 13.6046C124.438 14.4419 123.992 14.9087 123.139 14.9087H118.151V12.4565H123.124C123.996 12.4565 124.438 12.9401 124.438 13.6046ZM123.652 20.4266H118.152V17.0537H123.442C124.564 17.0537 125.348 17.6599 125.348 18.758C125.348 19.8561 124.713 20.4254 123.652 20.4254V20.4266Z" fill="black"/>
<path d="M174.378 19.974C174.075 20.105 173.761 20.2181 173.435 20.311C173.109 20.4051 172.771 20.479 172.422 20.5314C172.073 20.585 171.722 20.6112 171.366 20.6112C170.586 20.6112 169.887 20.5052 169.268 20.2944C168.649 20.0824 168.125 19.7882 167.697 19.4107C167.268 19.0331 166.941 18.5853 166.715 18.066C166.488 17.5468 166.375 16.9763 166.375 16.3558C166.375 15.7353 166.485 15.2065 166.702 14.7051C166.92 14.2049 167.239 13.7737 167.657 13.4117C168.075 13.0508 168.589 12.7697 169.201 12.5685C169.813 12.3672 170.508 12.2671 171.289 12.2671C171.612 12.2671 171.939 12.2886 172.271 12.3315C172.602 12.3743 172.923 12.4351 173.234 12.5125C173.545 12.5899 173.837 12.6852 174.112 12.7971C174.362 12.8996 174.587 13.0163 174.784 13.1461L176.033 11.2977C175.329 10.8749 174.499 10.5176 173.679 10.3115C172.86 10.1055 171.96 10.0019 170.98 10.0019C169.86 10.0019 168.858 10.1651 167.972 10.4914C167.085 10.8177 166.336 11.2667 165.722 11.836C165.108 12.4065 164.64 13.0782 164.317 13.8511C163.993 14.6253 163.832 15.459 163.832 16.3522C163.832 17.2454 163.99 18.1232 164.306 18.9176C164.622 19.712 165.093 20.4027 165.719 20.9899C166.345 21.5759 167.125 22.0368 168.06 22.3714C168.996 22.7061 170.081 22.8728 171.319 22.8728C172.289 22.8728 173.206 22.749 174.068 22.4989C174.93 22.25 175.691 21.9058 176.348 21.4675L175.096 19.6143C174.871 19.7417 174.631 19.8597 174.376 19.9704L174.378 19.974Z" fill="black"/>
<path d="M186.724 14.9933C183.546 14.9933 181.108 14.8825 181.108 13.7916C181.108 12.7007 183.157 12.3422 184.792 12.3422C186.333 12.3422 188.037 12.7149 189.492 13.2604L190.743 11.4108C189.804 10.8261 187.35 10.0043 184.616 10.0043C181.881 10.0043 178.504 11.1202 178.504 13.9012C178.504 16.6821 181.532 17.1823 186.476 17.1823C188.525 17.1823 189.387 17.7528 189.387 18.658C189.387 19.5631 188.27 20.6195 185.342 20.6195C183.114 20.6195 180.821 19.6429 179.474 19.0748L178.094 21.1233C179.227 21.7855 182.375 22.8764 185.55 22.8764C189.804 22.8764 192 21.0399 192 18.5115C192 16.544 190.118 14.9921 186.724 14.9921V14.9933Z" fill="black"/>
<path d="M149.44 10.3104H145.06V12.4565H149.44V22.5703H151.944V12.4565H156.325V10.3104H151.944H149.44Z" fill="black"/>
</g>
<defs>
<clipPath id="clip0_2654_346">
<rect width="192" height="28" fill="white"/>
</clipPath>
</defs>
</svg>
